<svg xmlns="http://www.w3.org/2000/svg" viewBox="0 0 128 128">
  <defs>
    <linearGradient id="b" x1="0" y1="0" x2="0" y2="1">
      <stop offset="0" stop-color="#FF74E4"/>
      <stop offset="1" stop-color="#FF2FC7"/>
    </linearGradient>
    <filter id="s" x="-20%" y="-20%" width="140%" height="140%">
      <feDropShadow dx="0" dy="4" stdDeviation="2" flood-color="#000" flood-opacity=".35"/>
    </filter>
  </defs>
  <ellipse cx="64" cy="114" rx="40" ry="9" fill="#000" opacity=".22"/>
  <path d="M34 16h60c12 0 22 10 22 22v56c0 14-10 26-24 28l-10 2H46l-10-2C22 120 12 108 12 94V38c0-12 10-22 22-22z"
        fill="url(#b)" stroke="#0E0F15" stroke-width="4" stroke-linejoin="round" filter="url(#s)"/>
  <rect x="26" y="34" width="76" height="24" rx="10" fill="#0E0F15" opacity=".55" stroke="#0E0F15" stroke-width="4"/>
  <g fill="#fff" opacity=".14">
    <rect x="28" y="64" width="16" height="20" rx="6"/>
    <rect x="48" y="64" width="16" height="20" rx="6"/>
    <rect x="68" y="64" width="16" height="20" rx="6"/>
  </g>
  <g fill="#0E0F15">
    <circle cx="40" cy="106" r="10"/>
    <circle cx="88" cy="106" r="10"/>
  </g>
  <text x="64" y="48" text-anchor="middle" font-family="ui-sans-serif, system-ui" font-size="14" font-weight="900" fill="#fff" opacity=".95">DTC</text>
</svg>
