<svg xmlns="http://www.w3.org/2000/svg" viewBox="0 0 128 128">
  <defs>
    <linearGradient id="c" x1="0" y1="0" x2="0" y2="1">
      <stop offset="0" stop-color="#7CF9FF"/>
      <stop offset="1" stop-color="#2DD0E8"/>
    </linearGradient>
    <filter id="s" x="-20%" y="-20%" width="140%" height="140%">
      <feDropShadow dx="0" dy="4" stdDeviation="2" flood-color="#000" flood-opacity=".35"/>
    </filter>
  </defs>
  <ellipse cx="64" cy="112" rx="36" ry="9" fill="#000" opacity=".22"/>
  <path d="M30 30h68c10 0 18 8 18 18v36c0 12-8 22-20 24l-8 2H40l-8-2C20 106 12 96 12 84V48c0-10 8-18 18-18z"
        fill="url(#c)" stroke="#0E0F15" stroke-width="4" stroke-linejoin="round" filter="url(#s)"/>
  <path d="M38 40h52c6 0 10 4 10 10v14H28V50c0-6 4-10 10-10z"
        fill="#0E0F15" opacity=".55" stroke="#0E0F15" stroke-width="4" stroke-linejoin="round"/>
  <rect x="40" y="72" width="48" height="10" rx="5" fill="#fff" opacity=".16"/>
  <g fill="#0E0F15">
    <circle cx="38" cy="102" r="10"/>
    <circle cx="90" cy="102" r="10"/>
  </g>
  <g fill="#fff" opacity=".18">
    <circle cx="38" cy="102" r="4"/>
    <circle cx="90" cy="102" r="4"/>
  </g>
  <text x="64" y="60" text-anchor="middle" font-family="ui-sans-serif, system-ui" font-size="12" font-weight="900" fill="#fff" opacity=".9">NOIDA</text>
</svg>
