<svg xmlns="http://www.w3.org/2000/svg" viewBox="0 0 128 128">
  <defs>
    <filter id="sh" x="-20%" y="-20%" width="140%" height="140%">
      <feDropShadow dx="0" dy="4" stdDeviation="2" flood-color="#000" flood-opacity=".35"/>
    </filter>
  </defs>
  <ellipse cx="64" cy="112" rx="34" ry="9" fill="#000" opacity=".18"/>
  <path d="M34 34c0-10 8-18 18-18h24c10 0 18 8 18 18v46c0 18-14 32-32 32S34 98 34 80V34z"
        fill="#E8E1D0" stroke="#0E0F15" stroke-width="4" stroke-linejoin="round" filter="url(#sh)"/>
  <path d="M38 30l-14-10" stroke="#0E0F15" stroke-width="4" stroke-linecap="round" opacity=".55"/>
  <path d="M90 30l14-10" stroke="#0E0F15" stroke-width="4" stroke-linecap="round" opacity=".55"/>
  <g fill="#0E0F15" opacity=".55">
    <circle cx="54" cy="52" r="5"/>
    <circle cx="74" cy="52" r="5"/>
  </g>
  <path d="M56 70c6 6 10 6 16 0" fill="none" stroke="#0E0F15" stroke-width="4" stroke-linecap="round" opacity=".45"/>
  <g fill="#8E8A7F" opacity=".65">
    <ellipse cx="50" cy="84" rx="10" ry="8"/>
    <ellipse cx="78" cy="90" rx="12" ry="10"/>
  </g>
</svg>
