<svg xmlns="http://www.w3.org/2000/svg" viewBox="0 0 128 128">
  <defs>
    <linearGradient id="e" x1="0" y1="0" x2="0" y2="1">
      <stop offset="0" stop-color="#7CF9FF"/>
      <stop offset="1" stop-color="#34D6EE"/>
    </linearGradient>
    <filter id="sh" x="-20%" y="-20%" width="140%" height="140%">
      <feDropShadow dx="0" dy="4" stdDeviation="2" flood-color="#000" flood-opacity=".35"/>
    </filter>
  </defs>
  <ellipse cx="64" cy="112" rx="34" ry="9" fill="#000" opacity=".22"/>
  <path d="M36 18h56c10 0 18 8 18 18v52c0 14-10 26-24 28l-8 2H50l-8-2C28 114 18 102 18 88V36c0-10 8-18 18-18z"
        fill="url(#e)" stroke="#0E0F15" stroke-width="4" stroke-linejoin="round" filter="url(#sh)"/>
  <rect x="36" y="34" width="56" height="20" rx="10" fill="#0E0F15" opacity=".55" stroke="#0E0F15" stroke-width="4"/>
  <rect x="34" y="66" width="60" height="10" rx="5" fill="#FFD24A" opacity=".9"/>
  <g fill="#0E0F15">
    <circle cx="40" cy="104" r="10"/>
    <circle cx="88" cy="104" r="10"/>
  </g>
  <text x="64" y="48" text-anchor="middle" font-family="ui-sans-serif, system-ui" font-size="12" font-weight="900" fill="#fff" opacity=".9">E-RIK</text>
</svg>
