<svg xmlns="http://www.w3.org/2000/svg" viewBox="0 0 128 128">
  <defs>
    <linearGradient id="t" x1="0" y1="0" x2="0" y2="1">
      <stop offset="0" stop-color="#FFE07A"/>
      <stop offset="1" stop-color="#FFBE2E"/>
    </linearGradient>
    <filter id="s" x="-20%" y="-20%" width="140%" height="140%">
      <feDropShadow dx="0" dy="4" stdDeviation="2" flood-color="#000" flood-opacity=".35"/>
    </filter>
  </defs>
  <ellipse cx="64" cy="114" rx="40" ry="9" fill="#000" opacity=".22"/>
  <path d="M24 18h80c12 0 22 10 22 22v54c0 14-10 26-24 28l-10 2H46l-10-2C22 120 12 108 12 94V40c0-12 10-22 22-22z"
        fill="url(#t)" stroke="#0E0F15" stroke-width="4" stroke-linejoin="round" filter="url(#s)"/>
  <rect x="30" y="34" width="68" height="26" rx="12" fill="#0E0F15" opacity=".55" stroke="#0E0F15" stroke-width="4"/>
  <g fill="#0E0F15" opacity=".28">
    <rect x="34" y="72" width="60" height="6" rx="3"/>
    <rect x="34" y="82" width="60" height="6" rx="3"/>
    <rect x="34" y="92" width="60" height="6" rx="3"/>
  </g>
  <g fill="#0E0F15">
    <circle cx="40" cy="106" r="10"/>
    <circle cx="88" cy="106" r="10"/>
  </g>
  <text x="64" y="50" text-anchor="middle" font-family="ui-sans-serif, system-ui" font-size="12" font-weight="900" fill="#fff" opacity=".95">TRUCK</text>
</svg>
